HIERARCHY
ROOT hip
{
  OFFSET 0 0 0
  CHANNELS 6 Xposition Yposition Zposition Zrotation Yrotation Xrotation
  JOINT abdomen
  {
    OFFSET 0 20.6881 -0.73152
    CHANNELS 3 Zrotation Xrotation Yrotation
    JOINT chest
    {
      OFFSET 0 11.7043 -0.48768
      CHANNELS 3 Zrotation Xrotation Yrotation
      JOINT neck
      {
        OFFSET 0 22.1894 -2.19456
        CHANNELS 3 Zrotation Xrotation Yrotation
        JOINT head
        {
          OFFSET -0.24384 7.07133 1.2192
          CHANNELS 3 Zrotation Xrotation Yrotation
          JOINT leftEye
          {
            OFFSET 4.14528 8.04674 8.04672
            CHANNELS 3 Zrotation Xrotation Yrotation
            End Site
            {
              OFFSET 1 0 0
            }
          }
          JOINT rightEye
          {
            OFFSET -3.6576 8.04674 8.04672
            CHANNELS 3 Zrotation Xrotation Yrotation
            End Site
            {
              OFFSET 1 0 0
            }
          }
        }
      }
      JOINT rCollar
      {
        OFFSET -2.68224 19.2634 -4.8768
        CHANNELS 3 Zrotation Xrotation Yrotation
        JOINT rShldr
        {
          OFFSET -8.77824 -1.95073 1.46304
          CHANNELS 3 Zrotation Xrotation Yrotation
          JOINT rForeArm
          {
            OFFSET -28.1742 -1.7115 0.48768
            CHANNELS 3 Zrotation Xrotation Yrotation
            JOINT rHand
            {
              OFFSET -22.5879 0.773209 7.07136
              CHANNELS 3 Zrotation Xrotation Yrotation
              JOINT rThumb1
              {
                OFFSET -1.2192 -0.487915 3.41376
                CHANNELS 3 Zrotation Xrotation Yrotation
                JOINT rThumb2
                {
                  OFFSET -3.37035 -0.52449 3.41376
                  CHANNELS 3 Zrotation Xrotation Yrotation
                  End Site
                  {
                    OFFSET -1.78271 -1.18214 1.43049
                  }
                }
              }
              JOINT rIndex1
              {
                OFFSET -7.75947 0.938293 5.60832
                CHANNELS 3 Zrotation Xrotation Yrotation
                JOINT rIndex2
                {
                  OFFSET -2.54057 -0.884171 1.56538
                  CHANNELS 3 Zrotation Xrotation Yrotation
                  End Site
                  {
                    OFFSET -1.62519 -0.234802 1.16502
                  }
                }
              }
              JOINT rMid1
              {
                OFFSET -8.24714 1.18213 3.41376
                CHANNELS 3 Zrotation Xrotation Yrotation
                JOINT rMid2
                {
                  OFFSET -3.10165 -0.590103 1.0647
                  CHANNELS 3 Zrotation Xrotation Yrotation
                  End Site
                  {
                    OFFSET -2.48547 -0.328903 0.83742
                  }
                }
              }
              JOINT rRing1
              {
                OFFSET -8.82822 0.546677 1.51678
                CHANNELS 3 Zrotation Xrotation Yrotation
                JOINT rRing2
                {
                  OFFSET -2.60934 -0.819778 -0.0198488
                  CHANNELS 3 Zrotation Xrotation Yrotation
                  End Site
                  {
                    OFFSET -2.33842 -0.294052 0.168128
                  }
                }
              }
              JOINT rPinky1
              {
                OFFSET -8.27202 -0.0477905 -0.4584
                CHANNELS 3 Zrotation Xrotation Yrotation
                JOINT rPinky2
                {
                  OFFSET -1.82734 -0.647385 -0.700984
                  CHANNELS 3 Zrotation Xrotation Yrotation
                  End Site
                  {
                    OFFSET -1.69225 -0.51767 -0.607171
                  }
                }
              }
            }
          }
        }
      }
      JOINT lCollar
      {
        OFFSET 2.68224 19.2634 -4.8768
        CHANNELS 3 Zrotation Xrotation Yrotation
        JOINT lShldr
        {
          OFFSET 8.77824 -1.95073 1.46304
          CHANNELS 3 Zrotation Xrotation Yrotation
          JOINT lForeArm
          {
            OFFSET 28.1742 -1.7115 0.48768
            CHANNELS 3 Zrotation Xrotation Yrotation
            JOINT lHand
            {
              OFFSET 22.5879 0.773209 7.07136
              CHANNELS 3 Zrotation Xrotation Yrotation
              JOINT lThumb1
              {
                OFFSET 1.2192 -0.487915 3.41376
                CHANNELS 3 Zrotation Xrotation Yrotation
                JOINT lThumb2
                {
                  OFFSET 3.37035 -0.52449 3.41376
                  CHANNELS 3 Zrotation Xrotation Yrotation
                  End Site
                  {
                    OFFSET 1.78271 -1.18214 1.43049
                  }
                }
              }
              JOINT lIndex1
              {
                OFFSET 7.75947 0.938293 5.60832
                CHANNELS 3 Zrotation Xrotation Yrotation
                JOINT lIndex2
                {
                  OFFSET 2.54057 -0.884171 1.56538
                  CHANNELS 3 Zrotation Xrotation Yrotation
                  End Site
                  {
                    OFFSET 1.62519 -0.234802 1.16502
                  }
                }
              }
              JOINT lMid1
              {
                OFFSET 8.24714 1.18213 3.41376
                CHANNELS 3 Zrotation Xrotation Yrotation
                JOINT lMid2
                {
                  OFFSET 3.10165 -0.590103 1.0647
                  CHANNELS 3 Zrotation Xrotation Yrotation
                  End Site
                  {
                    OFFSET 2.48547 -0.328903 0.83742
                  }
                }
              }
              JOINT lRing1
              {
                OFFSET 8.82822 0.546677 1.51678
                CHANNELS 3 Zrotation Xrotation Yrotation
                JOINT lRing2
                {
                  OFFSET 2.60934 -0.819778 -0.0198488
                  CHANNELS 3 Zrotation Xrotation Yrotation
                  End Site
                  {
                    OFFSET 2.33842 -0.294052 0.168128
                  }
                }
              }
              JOINT lPinky1
              {
                OFFSET 8.27202 -0.0477905 -0.4584
                CHANNELS 3 Zrotation Xrotation Yrotation
                JOINT lPinky2
                {
                  OFFSET 1.82734 -0.647385 -0.700984
                  CHANNELS 3 Zrotation Xrotation Yrotation
                  End Site
                  {
                    OFFSET 1.69225 -0.51767 -0.607171
                  }
                }
              }
            }
          }
        }
      }
    }
  }
  JOINT rButtock
  {
    OFFSET -8.77824 4.35084 1.2192
    CHANNELS 3 Zrotation Xrotation Yrotation
    JOINT rThigh
    {
      OFFSET 0 -1.70687 -2.19456
      CHANNELS 3 Zrotation Xrotation Yrotation
      JOINT rShin
      {
        OFFSET 0 -36.8199 0.73152
        CHANNELS 3 Zrotation Xrotation Yrotation
        JOINT rFoot
        {
          OFFSET 0.73152 -45.1104 -5.12064
          CHANNELS 3 Zrotation Xrotation Yrotation
          End Site
          {
            OFFSET -1.1221 -3.69964 12.103
          }
        }
      }
    }
  }
  JOINT lButtock
  {
    OFFSET 8.77824 4.35084 1.2192
    CHANNELS 3 Zrotation Xrotation Yrotation
    JOINT lThigh
    {
      OFFSET 0 -1.70687 -2.19456
      CHANNELS 3 Zrotation Xrotation Yrotation
      JOINT lShin
      {
        OFFSET 0 -36.8199 0.73152
        CHANNELS 3 Zrotation Xrotation Yrotation
        JOINT lFoot
        {
          OFFSET -0.73152 -45.1104 -5.12064
          CHANNELS 3 Zrotation Xrotation Yrotation
          End Site
          {
            OFFSET 1.1221 -3.69964 12.103
          }
        }
      }
    }
  }
}
MOTION
Frames:	9
Frame Time:	0.00833333
-78.6743 85.1887 9.84145 0.0 0.0 0.0 0.559351 -0.00286671 0.0159889 0.154366 -0.00442833 0.0267461 1.74072e-15 0.0 -5.59082e-17 4.86712e-15 3.18055e-15 -1.87914e-16 -0.0 0.0 0.0 -0.0 0.0 0.0 8.93261e-16 4.65902e-18 9.93923e-17 1.90598e-14 1.86361e-17 1.98785e-16 2.91667e-13 -8.32908e-14 6.36111e-15 3.31919e-12 9.88208e-14 -1.43125e-13 7.82911e-12 3.44036e-14 -2.83069e-13 1.35114e-11 5.725e-14 -4.8583e-13 7.83371e-12 3.49861e-14 -2.95792e-13 7.73091 5.47488 0.417314 7.82953e-12 3.43897e-14 -2.76708e-13 2.90554 0.965183 0.102902 7.84055e-12 3.45885e-14 -2.79889e-13 10.2786 0.731801 0.0259123 7.82039e-12 3.53837e-14 -2.70347e-13 2.22167 -0.733487 -0.20892 7.96465e-16 4.65902e-18 -1.98785e-16 1.51394e-14 -9.31803e-17 -1.39149e-15 2.92064e-13 8.66701e-14 -3.49861e-14 3.31983e-12 -8.5378e-14 -9.22361e-14 7.83459e-12 4.60923e-15 -2.79889e-13 1.35337e-11 3.18055e-15 -4.8901e-13 7.83092e-12 5.1684e-15 -2.70347e-13 -7.73091 5.47488 -0.417314 7.83609e-12 4.47265e-15 -2.8625e-13 -2.90554 0.965183 -0.102902 7.82534e-12 4.96962e-15 -2.83865e-13 -10.2786 0.731801 -0.0259123 7.83887e-12 6.36111e-15 -2.92611e-13 -2.22167 -0.733487 0.20892 -2.03217e-16 0.0 -3.88251e-19 0.922986 -4.50513 -0.0770313 -0.00206825 2.60854 -0.00962922 -0.502453 1.89677 0.095941 2.03217e-16 0.0 3.88251e-19 -0.0712536 -2.35215 0.0224559 0.00807201 -1.29119 0.0691991 0.494624 3.64342 -0.130519
-75.3551 84.4941 6.83081 -23.9312 82.9133 -18.8411 1.66798 -2.13887 0.986186 -0.210758 0.481956 0.292168 -1.02484 3.12958 -2.54606 1.13394 -6.08914 -4.7771 -0.0 0.0 0.0 -0.0 0.0 0.0 -6.3692e-15 5.13702e-13 -1.31811e-14 24.8063 3.68868 -0.481534 -3.95836 -1.7495 6.23476 0.114397 7.51498 1.02365 3.96011e-10 3.03175e-11 -9.78697e-11 6.81332e-10 5.31948e-11 -1.77457e-10 3.96021e-10 3.03188e-11 -9.78883e-11 7.73091 5.47488 0.417314 3.96012e-10 3.03171e-11 -9.7867e-11 2.90554 0.965183 0.102902 3.96022e-10 3.03168e-11 -9.78691e-11 10.2786 0.731801 0.0259123 3.96003e-10 3.03173e-11 -9.78607e-11 2.22167 -0.733487 -0.20892 -6.46136e-15 5.13699e-13 -1.34828e-14 -24.6797 5.05927 -0.978807 4.08451 -1.82974 -6.40768 -7.43305e-06 -0.0961937 0.0135191 1.70104e-10 -2.21294e-10 3.08418e-10 2.94985e-10 -3.83012e-10 5.32183e-10 1.701e-10 -2.21293e-10 3.08427e-10 -7.73091 5.47488 -0.417314 1.70105e-10 -2.21294e-10 3.08414e-10 -2.90554 0.965183 -0.102902 1.70097e-10 -2.21293e-10 3.08414e-10 -10.2786 0.731801 -0.0259123 1.70108e-10 -2.21292e-10 3.08405e-10 -2.22167 -0.733487 0.20892 -2.03217e-16 0.0 -3.88251e-19 0.745014 -6.75638 1.91509 0.000803349 5.2684 0.0468479 -0.721516 -1.45107 -3.00893 2.03217e-16 0.0 3.88251e-19 0.728264 -3.91849 -1.17353 -0.0029589 1.4603 -0.0129642 0.709294 -2.37944 2.1822
-75.3457 84.5384 6.6375 -19.3052 83.563 -13.5829 2.91103 -4.31371 2.03371 -0.605734 0.970882 0.578301 -1.80865 6.41723 -5.26272 1.21689 -12.3906 -10.0049 -0.0 0.0 0.0 -0.0 0.0 0.0 -1.40232e-14 1.04673e-12 -2.71403e-14 51.0973 7.59027 -0.991312 -7.7354 -3.53251 12.8504 -0.0664944 15.4432 2.16489 8.48079e-10 6.54679e-11 -2.2606e-10 1.45878e-09 1.14855e-10 -4.08675e-10 8.48095e-10 6.54701e-11 -2.26085e-10 7.73091 5.47488 0.417314 8.48081e-10 6.54673e-11 -2.26061e-10 2.90554 0.965183 0.102902 8.4809e-10 6.54664e-11 -2.26062e-10 10.2786 0.731801 0.0259123 8.48072e-10 6.54664e-11 -2.26055e-10 2.22167 -0.733487 -0.20892 -1.41119e-14 1.04672e-12 -2.74478e-14 -50.5812 10.4129 -2.05028 7.96309 -3.6896 -13.2065 4.26609e-05 -0.206508 0.0290229 3.42303e-10 -4.61792e-10 6.83588e-10 5.93766e-10 -7.99206e-10 1.1797e-09 3.42299e-10 -4.61791e-10 6.83598e-10 -7.73091 5.47488 -0.417314 3.42303e-10 -4.6179e-10 6.83587e-10 -2.90554 0.965183 -0.102902 3.42299e-10 -4.6179e-10 6.83585e-10 -10.2786 0.731801 -0.0259123 3.42307e-10 -4.61789e-10 6.83575e-10 -2.22167 -0.733487 0.20892 -2.03217e-16 0.0 -3.88251e-19 0.713788 -9.08716 4.04219 -0.00192678 8.09689 0.107369 -1.34341 -4.96349 -6.2759 2.03217e-16 0.0 3.88251e-19 1.48229 -5.51761 -2.44865 -0.00610742 4.36297 -0.100341 1.47716 -8.73129 4.70968
-75.34 84.5873 6.46487 -13.4819 84.1414 -7.1235 4.10331 -6.40344 2.9429 -0.954529 1.45459 0.823247 -2.23338 9.31413 -7.72928 0.26308 -17.7475 -14.9786 -0.0 0.0 0.0 -0.0 0.0 0.0 -2.08941e-14 1.5411e-12 -3.97422e-14 74.6079 11.0629 -1.46891 -10.7517 -5.0004 18.7696 -0.518452 22.5149 3.29603 1.17238e-09 9.08836e-11 -2.93043e-10 2.01697e-09 1.5947e-10 -5.314e-10 1.1724e-09 9.08864e-11 -2.93073e-10 7.73091 5.47488 0.417314 1.17238e-09 9.08826e-11 -2.93048e-10 2.90554 0.965183 0.102902 1.17239e-09 9.08814e-11 -2.93048e-10 10.2786 0.731801 0.0259123 1.17237e-09 9.08811e-11 -2.93041e-10 2.22167 -0.733487 -0.20892 -2.0977e-14 1.54109e-12 -4.00508e-14 -73.5048 15.1598 -3.03054 11.0471 -5.21517 -19.2962 0.000113885 -0.288581 0.0405578 4.94642e-10 -6.63892e-10 9.25812e-10 8.57889e-10 -1.14904e-09 1.59753e-09 4.94638e-10 -6.6389e-10 9.25822e-10 -7.73091 5.47488 -0.417314 4.94641e-10 -6.63889e-10 9.25814e-10 -2.90554 0.965183 -0.102902 4.94639e-10 -6.63889e-10 9.2581e-10 -10.2786 0.731801 -0.0259123 4.94645e-10 -6.63888e-10 9.25799e-10 -2.22167 -0.733487 0.20892 -2.03217e-16 0.0 -3.88251e-19 0.86616 -11.2105 5.97333 -0.00942922 10.5881 0.161946 -2.25152 -8.04681 -9.30813 2.03217e-16 0.0 3.88251e-19 2.1299 -7.03996 -3.58428 -0.00124592 6.96325 -0.17856 2.62881 -14.3266 7.02086
-75.3372 84.632 6.29608 -6.2944 84.6555 0.6654 5.02067 -8.28747 3.49294 -1.1789 1.92539 0.965055 -2.35624 11.3052 -9.48386 -1.02782 -21.2384 -18.6958 -0.0 0.0 0.0 -0.0 0.0 0.0 -2.58073e-14 1.93881e-12 -4.89507e-14 91.0368 13.4658 -1.84352 -12.6551 -5.9187 22.885 -1.0249 27.4736 4.19084 1.17724e-09 9.19626e-11 -2.0701e-10 2.02705e-09 1.6147e-10 -3.82897e-10 1.17727e-09 9.19653e-11 -2.07041e-10 7.73091 5.47488 0.417314 1.17725e-09 9.19613e-11 -2.07016e-10 2.90554 0.965183 0.102902 1.17725e-09 9.19598e-11 -2.07015e-10 10.2786 0.731801 0.0259123 1.17724e-09 9.19594e-11 -2.0701e-10 2.22167 -0.733487 -0.20892 -2.58784e-14 1.9388e-12 -4.92489e-14 -89.3777 18.4078 -3.68996 12.9898 -6.16749 -23.5428 0.00011042 -0.300051 0.0421698 5.97328e-10 -7.69996e-10 8.35672e-10 1.03536e-09 -1.33299e-09 1.44115e-09 5.97324e-10 -7.69994e-10 8.35681e-10 -7.73091 5.47488 -0.417314 5.97327e-10 -7.69994e-10 8.35675e-10 -2.90554 0.965183 -0.102902 5.97326e-10 -7.69993e-10 8.3567e-10 -10.2786 0.731801 -0.0259123 5.97331e-10 -7.69993e-10 8.35659e-10 -2.22167 -0.733487 0.20892 -2.03217e-16 0.0 -3.88251e-19 1.15213 -12.856 7.35693 -0.0172657 12.2361 0.199717 -3.12429 -10.151 -11.6619 2.03217e-16 0.0 3.88251e-19 2.64165 -8.37989 -4.35729 0.00679122 8.80755 -0.23243 3.63873 -18.1365 8.5555
-75.3789 84.8012 6.4908 -19.993 85.782 -11.0976 5.49742 -10.0151 3.50275 -1.21907 2.41773 0.953377 -2.31425 12.0939 -10.1815 -1.74382 -22.4839 -20.2315 -0.0 0.0 0.0 -0.0 0.0 0.0 -2.97609e-14 2.38942e-12 -5.73606e-14 97.5004 14.3668 -2.06662 -13.3279 -6.22883 24.4318 -1.28098 29.5039 4.58861 7.10508e-10 6.19088e-11 1.15629e-10 1.22803e-09 1.08834e-10 1.84457e-10 7.10527e-10 6.19103e-11 1.15602e-10 7.73091 5.47488 0.417314 7.1051e-10 6.1907e-11 1.15623e-10 2.90554 0.965183 0.102902 7.10519e-10 6.19056e-11 1.15625e-10 10.2786 0.731801 0.0259123 7.10504e-10 6.19055e-11 1.15631e-10 2.22167 -0.733487 -0.20892 -2.98088e-14 2.38941e-12 -5.76274e-14 -95.5723 19.576 -3.81165 13.6938 -6.5014 -25.1792 4.75438e-05 -0.221782 0.0311692 6.40581e-10 -7.82493e-10 2.23941e-10 1.10892e-09 -1.35541e-09 3.8352e-10 6.40576e-10 -7.82491e-10 2.23949e-10 -7.73091 5.47488 -0.417314 6.4058e-10 -7.82491e-10 2.23946e-10 -2.90554 0.965183 -0.102902 6.40578e-10 -7.82491e-10 2.2394e-10 -10.2786 0.731801 -0.0259123 6.40583e-10 -7.8249e-10 2.2393e-10 -2.22167 -0.733487 0.20892 -2.03217e-16 0.0 -3.88251e-19 1.51065 -13.9048 7.9473 -0.0202411 12.6752 0.212451 -3.62172 -10.9582 -13.0546 2.03217e-16 0.0 3.88251e-19 3.0576 -9.54504 -4.61297 0.011718 9.5969 -0.250671 3.91341 -19.5192 8.77358
-75.4139 84.9145 6.47563 -21.4839 86.6567 -11.3205 5.62285 -11.6271 3.12269 -1.12504 2.92362 0.832406 -2.21862 12.0378 -10.1066 -1.79502 -22.2343 -20.0902 -0.0 0.0 0.0 -0.0 0.0 0.0 -3.29444e-14 2.86883e-12 -6.50119e-14 96.8284 14.196 -2.17567 -13.1924 -6.14984 24.1349 -1.26736 29.4494 4.57552 -9.19234e-11 9.47749e-12 6.06206e-10 -1.46918e-10 1.69313e-11 1.04913e-09 -9.19107e-11 9.47677e-12 6.06188e-10 7.73091 5.47488 0.417314 -9.19216e-11 9.4749e-12 6.06203e-10 2.90554 0.965183 0.102902 -9.19124e-11 9.47396e-12 6.06204e-10 10.2786 0.731801 0.0259123 -9.1928e-11 9.47445e-12 6.06211e-10 2.22167 -0.733487 -0.20892 -3.2961e-14 2.86883e-12 -6.52324e-14 -94.8913 19.2611 -3.53309 13.5886 -6.44384 -24.9403 1.82898e-05 -0.0789803 0.011099 6.40902e-10 -7.26185e-10 -7.57674e-10 1.10742e-09 -1.2591e-09 -1.31323e-09 6.40896e-10 -7.26184e-10 -7.57668e-10 -7.73091 5.47488 -0.417314 6.409e-10 -7.26185e-10 -7.57668e-10 -2.90554 0.965183 -0.102902 6.40895e-10 -7.26185e-10 -7.57673e-10 -10.2786 0.731801 -0.0259123 6.40903e-10 -7.26183e-10 -7.57683e-10 -2.22167 -0.733487 0.20892 -2.03217e-16 0.0 -3.88251e-19 1.87793 -14.5338 7.95961 -0.0186849 12.252 0.207023 -3.75867 -10.8633 -13.7351 2.03217e-16 0.0 3.88251e-19 3.42552 -10.5841 -4.49602 0.0126322 9.63257 -0.2431 3.56095 -19.1841 8.0046
-75.3947 84.9165 6.44265 -23.0131 86.5663 -12.8414 5.56029 -12.991 2.62716 -0.984066 3.37169 0.681976 -2.11966 11.6186 -9.72253 -1.56346 -21.3793 -19.2755 -0.0 0.0 0.0 -0.0 0.0 0.0 -3.29696e-14 3.05866e-12 -6.60365e-14 93.2829 13.607 -2.22406 -12.7348 -5.91646 23.11 -1.14182 28.5483 4.39386 -9.8959e-10 -5.66069e-11 1.12815e-09 -1.68549e-09 -9.87138e-11 1.97012e-09 -9.89584e-10 -5.66096e-11 1.12814e-09 7.73091 5.47488 0.417314 -9.89589e-10 -5.66099e-11 1.12815e-09 2.90554 0.965183 0.102902 -9.89579e-10 -5.66105e-11 1.12815e-09 10.2786 0.731801 0.0259123 -9.89595e-10 -5.66093e-11 1.12816e-09 2.22167 -0.733487 -0.20892 -3.29568e-14 3.05866e-12 -6.62124e-14 -91.4386 18.3427 -3.13244 13.1489 -6.22178 -23.9327 4.83582e-05 0.104203 -0.0146458 6.07923e-10 -5.77097e-10 -1.7972e-09 1.04808e-09 -1.00212e-09 -3.10984e-09 6.07915e-10 -5.77097e-10 -1.79719e-09 -7.73091 5.47488 -0.417314 6.0792e-10 -5.77098e-10 -1.79719e-09 -2.90554 0.965183 -0.102902 6.07911e-10 -5.77099e-10 -1.7972e-09 -10.2786 0.731801 -0.0259123 6.07923e-10 -5.77097e-10 -1.7972e-09 -2.22167 -0.733487 0.20892 -2.03217e-16 0.0 -3.88251e-19 2.18572 -14.9225 7.72592 -0.0156945 11.5297 0.194836 -3.71263 -10.4069 -14.0338 2.03217e-16 0.0 3.88251e-19 3.73005 -11.4544 -4.23042 0.0118885 9.36137 -0.225728 3.01957 -18.1632 6.91944
-75.3967 84.9166 6.40426 -23.5483 86.5662 -13.2585 5.50831 -13.9734 2.29703 -0.886697 3.69057 0.582056 -2.06344 11.3173 -9.49386 -1.43785 -20.8037 -18.7924 -0.0 0.0 0.0 -0.0 0.0 0.0 -2.74485e-14 2.6405e-12 -5.45664e-14 91.1318 13.2529 -2.26667 -12.4438 -5.76476 22.4722 -1.07224 28.0385 4.29249 -1.74203e-09 -1.2762e-10 1.54488e-09 -2.97536e-09 -2.22578e-10 2.70643e-09 -1.74203e-09 -1.27623e-10 1.54487e-09 7.73091 5.47488 0.417314 -1.74203e-09 -1.27623e-10 1.54488e-09 2.90554 0.965183 0.102902 -1.74202e-09 -1.27623e-10 1.54488e-09 10.2786 0.731801 0.0259123 -1.74203e-09 -1.27621e-10 1.54489e-09 2.22167 -0.733487 -0.20892 -2.74179e-14 2.6405e-12 -5.47155e-14 -89.336 17.7026 -2.88173 12.8476 -6.06111 -23.2629 0.000113054 0.303616 -0.0426709 5.51274e-10 -3.11255e-10 -2.58265e-09 9.481e-10 -5.42539e-10 -4.46706e-09 5.51266e-10 -3.11255e-10 -2.58265e-09 -7.73091 5.47488 -0.417314 5.51272e-10 -3.11258e-10 -2.58265e-09 -2.90554 0.965183 -0.102902 5.51261e-10 -3.11258e-10 -2.58265e-09 -10.2786 0.731801 -0.0259123 5.51275e-10 -3.11256e-10 -2.58266e-09 -2.22167 -0.733487 0.20892 -2.03217e-16 0.0 -3.88251e-19 2.38525 -15.2474 7.58428 -0.0139948 11.0714 0.18717 -3.69491 -10.1184 -14.2876 2.03217e-16 0.0 3.88251e-19 3.93768 -12.1121 -4.04316 0.0118861 9.2301 -0.214592 2.67163 -17.5043 6.17008
